# xmcd
# 
# Track frame offsets:
#   150
#   17801
#   30479
#   44113
#   61621
#   77309
#   91202
#   108777
#   125340
#   138780
#   154882
#   171409
#   187159
#   202899
# 
# Disc length: 2933 seconds
# 
# Revision: 0
# Processed by: cddbd v1.5.1PL2 Copyright (c) Steve Scherf et al.
# Submitted via: Synapstar 1.0 
# 
DISCID=ad0b730e
DTITLE=Various Artist - SD-Country Hits
DYEAR=1900
DGENRE=Country
TTITLE0=Lonestar - With Me
TTITLE1=Reba McEntire - I'm A Survivor
TTITLE2=Toby Keith - I Wanna Talk About Me
TTITLE3=Montgomery Gentry - Cold One Comin' On
TTITLE4=Sara Evans - Saints And Angels
TTITLE5=Brad Paisley - Wrapped Around
TTITLE6=LaAnn Rimes - Soon
TTITLE7=Joe Diffie - In Another World
TTITLE8=Kenny Rogers - Beautiful (All That You Could Be)
TTITLE9=Chad Brock - Tell Me How
TTITLE10=Tracy Byrd - Just Let Me Be In Love
TTITLE11=Steve Holy - Good Morning Beautiful
TTITLE12=Jamie O' Neal - Shiver
TTITLE13=Collin Raye - Ain't Nobody Gonna Take That from Me
EXTD=MediaType: Karaoke CD+G Producer: StarDisc
EXTT0=
EXTT1=
EXTT2=
EXTT3=
EXTT4=
EXTT5=
EXTT6=
EXTT7=
EXTT8=
EXTT9=
EXTT10=
EXTT11=
EXTT12=
EXTT13=
PLAYORDER=
